<svg xmlns="http://www.w3.org/2000/svg" viewBox="0 0 960 560" role="img" aria-label="Diseño del estudio: de 41 pacientes a 12 muestras analizadas por RRBS">
  <rect width="960" height="560" fill="#FFFFFF" />
  <rect x="330" y="20" width="300" height="80" rx="10" fill="#12305C" stroke="#12305C" stroke-width="2" />
  <text x="480.0" y="54.900000000000006" font-size="17" fill="#FFFFFF" font-weight="bold" text-anchor="middle" font-family="Helvetica, Arial, sans-serif">41 pacientes</text>
  <text x="480.0" y="77.0" font-size="17" fill="#FFFFFF" font-weight="normal" text-anchor="middle" font-family="Helvetica, Arial, sans-serif">Estudio transversal · 2015–2017</text>
  <line x1="480" y1="100" x2="480" y2="140" stroke="#6B7280" stroke-width="3" />
  <polygon points="480,142 473,130 487,130" fill="#6B7280" />
  <rect x="230" y="140" width="500" height="80" rx="10" fill="#F7F9FC" stroke="#E2E8F0" stroke-width="2" />
  <text x="480.0" y="174.89999999999998" font-size="17" fill="#1A1A1A" font-weight="bold" text-anchor="middle" font-family="Helvetica, Arial, sans-serif">Clasificación molecular de cada muestra</text>
  <text x="480.0" y="196.99999999999997" font-size="17" fill="#1A1A1A" font-weight="normal" text-anchor="middle" font-family="Helvetica, Arial, sans-serif">p16INK4a por inmunohistoquímica · HPV por PCR + genotipado</text>
  <line x1="480" y1="220" x2="480" y2="260" stroke="#6B7280" stroke-width="3" />
  <polygon points="480,262 473,250 487,250" fill="#6B7280" />
  <rect x="40" y="260" width="260" height="80" rx="10" fill="#1D4E89" stroke="#1D4E89" stroke-width="2" />
  <text x="170.0" y="294.9" font-size="17" fill="#FFFFFF" font-weight="bold" text-anchor="middle" font-family="Helvetica, Arial, sans-serif">p16+ / HPV+</text>
  <text x="170.0" y="317.0" font-size="17" fill="#FFFFFF" font-weight="normal" text-anchor="middle" font-family="Helvetica, Arial, sans-serif">n = 20 (Tabla 1)</text>
  <line x1="170" y1="340" x2="170" y2="380" stroke="#6B7280" stroke-width="3" />
  <polygon points="170,382 163,370 177,370" fill="#6B7280" />
  <rect x="40" y="380" width="260" height="70" rx="10" fill="#F7F9FC" stroke="#E2E8F0" stroke-width="2" />
  <text x="170.0" y="409.9" font-size="17" fill="#1A1A1A" font-weight="bold" text-anchor="middle" font-family="Helvetica, Arial, sans-serif">RRBS</text>
  <text x="170.0" y="432.0" font-size="17" fill="#1A1A1A" font-weight="normal" text-anchor="middle" font-family="Helvetica, Arial, sans-serif">4 muestras</text>
  <rect x="350" y="260" width="260" height="80" rx="10" fill="#4C4A7D" stroke="#4C4A7D" stroke-width="2" />
  <text x="480.0" y="294.9" font-size="17" fill="#FFFFFF" font-weight="bold" text-anchor="middle" font-family="Helvetica, Arial, sans-serif">p16+ / HPV−</text>
  <text x="480.0" y="317.0" font-size="17" fill="#FFFFFF" font-weight="normal" text-anchor="middle" font-family="Helvetica, Arial, sans-serif">n = 9 (Tabla 1)</text>
  <line x1="480" y1="340" x2="480" y2="380" stroke="#6B7280" stroke-width="3" />
  <polygon points="480,382 473,370 487,370" fill="#6B7280" />
  <rect x="350" y="380" width="260" height="70" rx="10" fill="#F7F9FC" stroke="#E2E8F0" stroke-width="2" />
  <text x="480.0" y="409.9" font-size="17" fill="#1A1A1A" font-weight="bold" text-anchor="middle" font-family="Helvetica, Arial, sans-serif">RRBS</text>
  <text x="480.0" y="432.0" font-size="17" fill="#1A1A1A" font-weight="normal" text-anchor="middle" font-family="Helvetica, Arial, sans-serif">4 muestras</text>
  <rect x="660" y="260" width="260" height="80" rx="10" fill="#4FA3D1" stroke="#4FA3D1" stroke-width="2" />
  <text x="790.0" y="294.9" font-size="17" fill="#FFFFFF" font-weight="bold" text-anchor="middle" font-family="Helvetica, Arial, sans-serif">p16− / HPV−</text>
  <text x="790.0" y="317.0" font-size="17" fill="#FFFFFF" font-weight="normal" text-anchor="middle" font-family="Helvetica, Arial, sans-serif">n = 12 (Tabla 1)</text>
  <line x1="790" y1="340" x2="790" y2="380" stroke="#6B7280" stroke-width="3" />
  <polygon points="790,382 783,370 797,370" fill="#6B7280" />
  <rect x="660" y="380" width="260" height="70" rx="10" fill="#F7F9FC" stroke="#E2E8F0" stroke-width="2" />
  <text x="790.0" y="409.9" font-size="17" fill="#1A1A1A" font-weight="bold" text-anchor="middle" font-family="Helvetica, Arial, sans-serif">RRBS</text>
  <text x="790.0" y="432.0" font-size="17" fill="#1A1A1A" font-weight="normal" text-anchor="middle" font-family="Helvetica, Arial, sans-serif">4 muestras</text>
  <text x="480" y="495" font-size="18" fill="#1A1A1A" font-weight="bold" text-anchor="middle" font-family="Helvetica, Arial, sans-serif">12 muestras RRBS (4 por grupo), analizadas por triplicado</text>
  <text x="480" y="530" font-size="14" fill="#6B7280" font-weight="normal" text-anchor="middle" font-family="Helvetica, Arial, sans-serif">Diagrama original basado en Buenahora et al. (2021)</text>
</svg>